<svg width="1600" height="1000" viewBox="0 0 1600 1000" fill="none" xmlns="http://www.w3.org/2000/svg">
  <rect width="1600" height="1000" fill="#0B1F2A"/>
  <rect width="1600" height="1000" fill="url(#bg)"/>
  <circle cx="1250" cy="280" r="280" fill="#C9A24B" fill-opacity="0.16"/>
  <circle cx="280" cy="780" r="260" fill="#F7F4EC" fill-opacity="0.08"/>
  <path d="M800 250C740 250 700 290 700 350C700 410 740 450 800 450C860 450 900 410 900 350C900 290 860 250 800 250ZM800 310C820 310 836 326 836 346C836 366 820 382 800 382C780 382 764 366 764 346C764 326 780 310 800 310Z" fill="#C9A24B" fill-opacity="0.9"/>
  <path d="M800 450C740 450 700 490 700 550C700 610 740 650 800 650C860 650 900 610 900 550C900 490 860 450 800 450ZM800 510C820 510 836 526 836 546C836 566 820 582 800 582C780 582 764 566 764 546C764 526 780 510 800 510Z" fill="#F7F4EC" fill-opacity="0.7"/>
  <path d="M640 360C640 280 700 220 780 220C860 220 920 280 920 360C920 440 860 500 780 500C700 500 640 440 640 360Z" stroke="#F7F4EC" stroke-opacity="0.25" stroke-width="10"/>
  <path d="M980 660C980 580 1040 520 1120 520C1200 520 1260 580 1260 660C1260 740 1200 800 1120 800C1040 800 980 740 980 660Z" stroke="#C9A24B" stroke-opacity="0.5" stroke-width="10"/>
  <path d="M420 360C420 300 460 260 520 260C580 260 620 300 620 360C620 420 580 460 520 460C460 460 420 420 420 360Z" fill="#F7F4EC" fill-opacity="0.12"/>
  <path d="M324 607C400 560 470 562 546 607" stroke="#C9A24B" stroke-opacity="0.6" stroke-width="8" stroke-linecap="round"/>
  <path d="M1116 253C1190 220 1264 228 1338 267" stroke="#F7F4EC" stroke-opacity="0.35" stroke-width="8" stroke-linecap="round"/>
  <path d="M520 200C590 150 660 140 730 170" stroke="#F7F4EC" stroke-opacity="0.22" stroke-width="6" stroke-linecap="round"/>
  <defs>
    <linearGradient id="bg" x1="0" y1="0" x2="1600" y2="1000" gradientUnits="userSpaceOnUse">
      <stop offset="0" stop-color="#153143"/>
      <stop offset="0.55" stop-color="#0B1F2A"/>
      <stop offset="1" stop-color="#122536"/>
    </linearGradient>
  </defs>
</svg>
